<svg xmlns="http://www.w3.org/2000/svg" viewBox="0 0 1500 1500" width="80" height="80">
  <g fill="none" stroke="#220c3c" stroke-width="40" stroke-linecap="round" stroke-linejoin="round">
    <!-- Main Document Outline -->
    <path d="M 985,475 L 985,1051 C 985,1101 944,1142 894,1142 L 380,1142 C 330,1142 289,1101 289,1051 L 289,364 C 289,314 330,273 380,273 L 784,273 L 985,475 Z" />
    
    <!-- Top Fold Detail -->
    <path d="M 784,273 L 784,475 L 985,475" />
    
    <!-- Content Lines (Checklist items) -->
    <line x1="434" y1="586" x2="698" y2="586" />
    <line x1="732" y1="586" x2="839" y2="586" />
    
    <line x1="434" y1="679" x2="698" y2="679" />
    <line x1="732" y1="679" x2="839" y2="679" />
    
    <line x1="434" y1="768" x2="839" y2="768" />
    <line x1="481" y1="935" x2="793" y2="935" />
    
    <!-- Circular Seal/Icon at bottom right -->
    <circle cx="1106" cy="1107" r="244" />
  </g>
</svg>
